<?xml version="1.0" encoding="utf-8"?>
<!-- Generator: Adobe Illustrator 18.1.1, SVG Export Plug-In . SVG Version: 6.00 Build 0)  -->
<svg version="1.1" id="Layer_1" xmlns="http://www.w3.org/2000/svg" xmlns:xlink="http://www.w3.org/1999/xlink" x="0px" y="0px"
	 viewBox="215 157 350 271.8" enable-background="new 215 157 350 271.8" xml:space="preserve">
<g id="TEXT">
</g>
<g id="Layer_3">
	<path d="M-850.9,200.6c-4,4-4,16.5,4,25c6.7,7.1,49.1,23.2,79.1,30.4c29.9,7.1,140.3,19.2,214.9-9.4
		c74.6-28.1,185.4-105,212.2-223.8c26.4-117.1,4.5-195.2-59.4-202.4c-63.9-7.1-159,75.5-196.1,218.9
		c-38,145.6-17.4,256.9-26.4,331.9c-9.4,77.7-15.2,124.6-90.2,166.6c-42.9,23.7-101,17.9-155.9,8.9c-55-8.9-157.3-39.8-155.9-92
		c0.9-33.5,21.9-46,72.8-46c74.2,0,160.8,44.7,198.8,67.5c34,20.6,97.8,58.1,164,95.2c41.1,23.2,130,46,153.2,8
		c5.8-9.4,15.6-25,1.8-30.8c-6.7-3.1-24.1,6.7-40.7,6.3c-45.6-0.9-140.3-59.4-151-64.8c-10.7-5.4-89.8-63-143.4-88.5
		c-59-28.1-145.6-57.2-220.3-26.4c-57.2,23.7-57.2,63.4-54.5,86.2c4.5,36.6,61.2,78.2,134.5,95.2c49.6,11.6,151.5,28.1,206-3.1
		c60.8-34.8,117.5-82.7,138.5-157.7c23.2-84.4,17-277,26.8-358.3c8-68.8,39.3-145.2,70.6-176c23.2-23.2,66.1-23.7,87.6,3.1
		c16.5,20.6,20.6,115.7-8.9,195.7c-42.4,114.8-111.2,156.8-177.8,172.9c-80.4,19.2-130.5,24.1-251.5-26.8
		C-840.7,197.9-846.9,196.6-850.9,200.6z"/>
</g>
<g id="Layer_4">
</g>
<g id="Layer_5">
</g>
<g id="Layer_6">
</g>
<g id="Layer_7">
</g>
<g id="Layer_8">
</g>
<g id="Layer_9">
</g>
<g id="Layer_10" opacity="0.25">
	<path fill="#9BBD6C" d="M339.6,163.8c1.4-2.7,6.5,5.9,20.5,8c14.1,2.2,36.8,1.2,45.4,6.5c8.6,5.3,21.5,18.8,11.9,31.3
		c-9.8,12.3-30.7,15.1-44.8,5.5C358.6,205.5,337.1,169.1,339.6,163.8z"/>
	<path fill="#9BBD6C" d="M424.9,225.8c-10.8,9.8-10.4,25.8,7,32.9c21.5,8.6,31.9-1.2,49.7-5.5c17.8-4.3,28-1.6,29.7-4.9
		s-15.6-21.5-47.5-28.6C449.1,216.6,435.6,216,424.9,225.8z"/>
</g>
<g id="Layer_11" opacity="0.25">
	<path fill="#964677" d="M438.8,208.4c-1.8-0.4-20.3,4.3-25.6,7.8c-11,7.2-23.3,23.7-15.5,33.6c10.2,12.9,20.5,28.4,24.6,39.3
		c6.1,16.6,1.6,19-0.8,19c-7.6,0.4-10-38.5-36-51.4s-54.2-9-75.7,12.5c-21.5,21.5-34.4,54.4-12.9,95.4c22.7,43.2,39.9,41.5,55,42.6
		s18.4-4.9,24.3-1.6c5.9,3.3,6.1,10,17.8,11.3c14.5,1.6,48.5-2.7,76.1-34.4c28.9-33.4,12.9-74.9-3.3-91.5
		c-16.2-16.6-48.7-30.7-54.4-38.1c-6.8-8.8-4.7-20,1-24.4c10.6-8.4,21.3-10.6,24.4-11.7C441.1,215.6,440.7,209,438.8,208.4z"/>
</g>
</svg>
